<svg width="199" height="197" viewBox="0 0 199 197" fill="none" xmlns="http://www.w3.org/2000/svg">
<g filter="url(#filter0_d_2100_788)">
<path fill-rule="evenodd" clip-rule="evenodd" d="M167.296 33.5828C179.325 46.3854 181.224 59.6101 180.802 68.6845C180.24 79.3065 175.949 88.0995 172.431 92.3905C170.11 95.345 163.849 102.028 160.825 105.264L163.076 107.585C167.789 112.368 167.648 120.739 162.724 125.874L162.654 125.945C159.769 128.829 156.112 130.236 152.594 130.236C151.961 130.236 151.328 130.165 150.765 130.095C151.328 134.105 149.921 138.536 146.615 141.842C144.012 144.375 140.776 145.852 137.4 146.063H136.556C136.134 146.063 135.641 146.063 135.219 145.993C135.29 146.696 135.36 147.47 135.29 148.244C135.008 151.62 133.531 154.856 130.999 157.389C128.396 159.921 125.16 161.398 121.784 161.609H120.939C120.377 161.609 119.884 161.609 119.392 161.539C119.955 165.548 118.548 169.98 115.312 173.216C112.498 175.959 108.911 177.366 105.464 177.366C102.369 177.366 99.3437 176.241 97.0927 173.99L94.3493 171.246C92.45 172.442 90.2693 173.075 87.948 173.075C84.7121 173.075 81.617 171.809 79.2956 169.488C76.9743 167.166 75.6377 164.071 75.6377 160.765C75.6377 160.273 75.6377 159.851 75.7081 159.358C75.0046 159.499 74.1605 159.569 73.3867 159.569C70.1509 159.569 67.0558 158.303 64.7344 155.982C62.413 153.66 61.0765 150.565 61.0765 147.259C61.0765 146.767 61.0765 146.345 61.1468 145.852C60.3731 145.993 59.5993 146.063 58.8255 146.063C55.5896 146.063 52.4945 144.797 50.1731 142.476C47.8518 140.154 46.5152 137.059 46.5152 133.753C46.5152 133.19 46.5856 132.627 46.6559 132.065C45.7415 132.276 44.827 132.416 43.9125 132.416C40.6767 132.416 37.5815 131.15 35.2602 128.829C32.9388 126.507 31.6023 123.412 31.6023 120.106C31.6023 116.8 32.8685 113.705 35.1898 111.383L38.4257 108.148C36.7374 106.67 26.5375 97.596 23.161 91.8278C23.0906 91.6871 22.9499 91.476 22.8093 91.265C21.0506 88.3106 16.3376 80.5727 15.1417 70.1618C14.4383 64.2528 15.001 58.3439 16.83 52.7867C19.0107 46.0337 23.0203 39.6324 28.7885 33.7235C50.1731 11.7761 79.577 20.9912 90.6211 30.769C92.0983 32.0352 94.5603 34.4269 97.9369 37.7331C102.158 33.6531 105.886 30.1359 108.629 27.7442C113.483 23.5235 123.261 18.5995 134.938 18.5995C143.309 18.5995 155.689 21.2022 167.296 33.5828Z" fill="#FEE6A7" stroke="white" stroke-width="22.9453" stroke-miterlimit="1.5" stroke-linecap="round" stroke-linejoin="round"/>
<path fill-rule="evenodd" clip-rule="evenodd" d="M167.296 33.5828C179.325 46.3854 181.224 59.6101 180.802 68.6845C180.24 79.3065 175.949 88.0995 172.431 92.3905C170.11 95.345 163.849 102.028 160.825 105.264L163.076 107.585C167.789 112.368 167.648 120.739 162.724 125.874L162.654 125.945C159.769 128.829 156.112 130.236 152.594 130.236C151.961 130.236 151.328 130.165 150.765 130.095C151.328 134.105 149.921 138.536 146.615 141.842C144.012 144.375 140.776 145.852 137.4 146.063H136.556C136.134 146.063 135.641 146.063 135.219 145.993C135.29 146.696 135.36 147.47 135.29 148.244C135.008 151.62 133.531 154.856 130.999 157.389C128.396 159.921 125.16 161.398 121.784 161.609H120.939C120.377 161.609 119.884 161.609 119.392 161.539C119.955 165.548 118.548 169.98 115.312 173.216C112.498 175.959 108.911 177.366 105.464 177.366C102.369 177.366 99.3437 176.241 97.0927 173.99L94.3493 171.246C92.45 172.442 90.2693 173.075 87.948 173.075C84.7121 173.075 81.617 171.809 79.2956 169.488C76.9743 167.166 75.6377 164.071 75.6377 160.765C75.6377 160.273 75.6377 159.851 75.7081 159.358C75.0046 159.499 74.1605 159.569 73.3867 159.569C70.1509 159.569 67.0558 158.303 64.7344 155.982C62.413 153.66 61.0765 150.565 61.0765 147.259C61.0765 146.767 61.0765 146.345 61.1468 145.852C60.3731 145.993 59.5993 146.063 58.8255 146.063C55.5896 146.063 52.4945 144.797 50.1731 142.476C47.8518 140.154 46.5152 137.059 46.5152 133.753C46.5152 133.19 46.5856 132.627 46.6559 132.065C45.7415 132.276 44.827 132.416 43.9125 132.416C40.6767 132.416 37.5815 131.15 35.2602 128.829C32.9388 126.507 31.6023 123.412 31.6023 120.106C31.6023 116.8 32.8685 113.705 35.1898 111.383L38.4257 108.148C36.7374 106.67 26.5375 97.596 23.161 91.8278C23.0906 91.6871 22.9499 91.476 22.8093 91.265C21.0506 88.3106 16.3376 80.5727 15.1417 70.1618C14.4383 64.2528 15.001 58.3439 16.83 52.7867C19.0107 46.0337 23.0203 39.6324 28.7885 33.7235C50.1731 11.7761 79.577 20.9912 90.6211 30.769C92.0983 32.0352 94.5603 34.4269 97.9369 37.7331C102.158 33.6531 105.886 30.1359 108.629 27.7442C113.483 23.5235 123.261 18.5995 134.938 18.5995C143.309 18.5995 155.689 21.2022 167.296 33.5828Z" fill="#FEE6A7"/>
<path d="M167.296 33.5828C155.689 21.2022 143.309 18.5995 134.938 18.5995C123.261 18.5995 113.483 23.5235 108.629 27.7442C105.886 30.1359 102.158 33.6531 97.9369 37.7331C94.5603 34.4269 92.0983 32.0352 90.6211 30.769C79.577 20.9912 50.1731 11.7761 28.7885 33.7235C23.0203 39.6324 19.0107 46.0337 16.83 52.7867C15.001 58.3439 14.4383 64.2528 15.1417 70.1618C16.3376 80.5727 21.0506 88.3106 22.8093 91.265C22.9499 91.476 23.0906 91.6871 23.161 91.8278C26.5375 97.596 36.7374 106.67 38.4257 108.148L35.1898 111.383C32.8685 113.705 31.6023 116.8 31.6023 120.106C31.6023 123.412 32.9388 126.507 35.2602 128.829C37.5815 131.15 40.6767 132.416 43.9125 132.416C44.827 132.416 45.7415 132.276 46.6559 132.065C46.5856 132.627 46.5152 133.19 46.5152 133.753C46.5152 137.059 47.8518 140.154 50.1731 142.476C52.4945 144.797 55.5896 146.063 58.8255 146.063C59.5993 146.063 60.3731 145.993 61.1468 145.852C61.0765 146.345 61.0765 146.767 61.0765 147.259C61.0765 150.565 62.413 153.66 64.7344 155.982C67.0558 158.303 70.1509 159.569 73.3867 159.569C74.1605 159.569 75.0046 159.499 75.7081 159.358C75.6377 159.851 75.6377 160.273 75.6377 160.765C75.6377 164.071 76.9743 167.166 79.2956 169.488C81.617 171.809 84.7121 173.075 87.948 173.075C90.2693 173.075 92.45 172.442 94.3493 171.246L97.0927 173.99C99.3437 176.241 102.369 177.366 105.464 177.366C108.911 177.366 112.498 175.959 115.312 173.216C118.548 169.98 119.955 165.548 119.392 161.539C119.884 161.609 120.377 161.609 120.939 161.609H121.784C125.16 161.398 128.396 159.921 130.999 157.389C133.531 154.856 135.008 151.62 135.29 148.244C135.36 147.47 135.29 146.696 135.219 145.993C135.641 146.063 136.134 146.063 136.556 146.063H137.4C140.776 145.852 144.012 144.375 146.615 141.842C149.921 138.536 151.328 134.105 150.765 130.095C151.328 130.165 151.961 130.236 152.594 130.236C156.112 130.236 159.769 128.829 162.654 125.945L162.724 125.874C167.648 120.739 167.789 112.368 163.076 107.585L160.825 105.264C163.849 102.028 170.11 95.345 172.431 92.3905C175.949 88.0995 180.24 79.3065 180.802 68.6845C181.224 59.6101 179.325 46.3854 167.296 33.5828ZM48.6959 124.749C47.4297 126.015 45.7415 126.718 43.9829 126.718C42.2243 126.718 40.536 126.015 39.3401 124.819C38.0739 123.553 37.3705 121.935 37.3705 120.176C37.3705 118.418 38.0739 116.73 39.2698 115.463L56.6448 98.0181C57.911 96.7519 59.5993 96.0484 61.3579 96.0484C63.1165 96.0484 64.8047 96.7519 66.0006 97.9477C67.2668 99.2139 67.9702 100.832 67.9702 102.59C67.9702 104.349 67.2668 106.037 66.0709 107.303L48.6959 124.749ZM63.6089 138.396C62.3427 139.662 60.6544 140.365 58.8958 140.365C57.1372 140.365 55.449 139.662 54.2531 138.466C52.9869 137.2 52.2835 135.582 52.2835 133.823C52.2835 132.065 52.9869 130.376 54.1828 129.11L71.5578 111.665C72.824 110.399 74.5122 109.695 76.2708 109.695C78.0295 109.695 79.7177 110.399 80.9136 111.594C82.1094 112.79 82.8832 114.479 82.8832 116.237C82.8832 117.996 82.1798 119.684 80.9839 120.95L63.6089 138.396ZM78.1701 151.761C76.9039 153.027 75.2157 153.731 73.4571 153.731C71.6985 153.731 70.0102 153.027 68.8144 151.831C67.5482 150.565 66.8447 148.947 66.8447 147.189C66.8447 145.43 67.5482 143.742 68.744 142.476L86.119 125.03C87.3852 123.764 89.0735 123.061 90.8321 123.061C92.5907 123.061 94.279 123.764 95.4748 124.96C98.0775 127.563 98.0775 131.713 95.4748 134.316L78.1701 151.761ZM92.7314 165.267C91.4652 166.533 89.7769 167.237 88.0183 167.237C86.2597 167.237 84.5715 166.533 83.3756 165.337C82.1094 164.071 81.406 162.453 81.406 160.695C81.406 158.936 82.1094 157.248 83.3053 155.982L100.68 138.536C101.946 137.27 103.635 136.567 105.393 136.567C107.152 136.567 108.84 137.27 110.036 138.466C112.639 141.069 112.639 145.219 110.036 147.822L92.7314 165.267ZM111.373 168.995C108.348 172.02 103.775 172.372 101.173 169.769L98.6403 167.237L109.614 156.193L112.146 158.795C114.819 161.398 114.468 165.971 111.373 168.995ZM158.574 121.724C155.478 124.819 150.836 125.171 148.303 122.639L125.019 100.621L122.768 103.012L121.01 104.771L143.59 127.352C146.193 129.954 145.771 134.527 142.676 137.622C141.128 139.169 139.159 140.084 137.189 140.225C135.29 140.365 133.601 139.732 132.406 138.536L109.333 115.463L105.323 119.473L105.534 119.684L128.044 143.038C129.24 144.234 129.873 145.922 129.732 147.822C129.592 149.862 128.677 151.761 127.13 153.309C125.582 154.856 123.612 155.771 121.643 155.911C119.744 156.052 118.055 155.419 116.859 154.223L114.397 151.761C118.97 146.907 118.899 139.24 114.186 134.527C111.865 132.205 108.77 130.939 105.534 130.939C104.76 130.939 103.916 131.009 103.213 131.15C103.635 127.563 102.439 123.764 99.6251 121.021C97.3038 118.699 94.2086 117.433 90.9728 117.433C90.199 117.433 89.4252 117.503 88.6514 117.644C88.7218 117.152 88.7218 116.73 88.7218 116.308C88.7218 113.001 87.3852 109.906 85.0639 107.585C82.7425 105.264 79.6474 103.997 76.4115 103.997C75.4971 103.997 74.5826 104.068 73.6681 104.349C73.7385 103.786 73.8088 103.224 73.8088 102.661C73.8088 99.3546 72.4723 96.2594 70.1509 93.9381C67.8295 91.6167 64.7344 90.3505 61.4986 90.3505C58.1924 90.3505 55.0972 91.6167 52.7759 94.0084L41.7318 105.052L42.576 104.138C39.4808 101.465 30.8988 93.516 28.2961 89.0843C28.2258 88.8733 28.0851 88.6623 27.874 88.3809C16.83 70.0914 18.6589 52.646 33.0795 37.8034C43.4201 27.1814 55.3083 25.5635 63.3979 26.1263C74.1605 26.8297 82.8129 31.4021 86.9632 35.1303C88.37 36.3965 90.6914 38.6476 93.9976 41.813C78.7329 56.8667 59.8103 76.4927 58.7551 77.6182L56.8558 79.5879L58.7551 81.5575C59.2475 82.0499 71.4171 94.5712 85.0639 94.5712C85.6266 94.5712 86.1894 94.5712 86.6818 94.5008C87.8073 94.4305 99.2734 93.7271 108.348 85.0044L121.995 72.3424L141.339 92.5312L159.136 111.383L159.207 111.454C161.458 113.916 161.247 118.77 158.574 121.724ZM175.104 68.1921C174.612 77.4776 170.954 85.0044 168 88.6623C165.819 91.3354 160.051 97.5256 156.956 100.832L121.995 64.3935L104.268 80.8541C96.6003 88.2402 86.3301 88.7326 86.2597 88.7326H86.119C85.697 88.7326 85.2749 88.803 84.8528 88.803C76.4819 88.803 68.3219 82.5423 64.5937 79.3768C72.4019 71.2169 101.173 41.602 112.287 31.9649C116.367 28.3773 124.738 24.227 134.868 24.227C145.419 24.227 154.916 28.6587 163.076 37.4517C173.838 48.8475 175.527 60.4543 175.104 68.1921Z" fill="black"/>
</g>
<defs>
<filter id="filter0_d_2100_788" x="-2" y="0" width="203.736" height="203.736" filterUnits="userSpaceOnUse" color-interpolation-filters="sRGB">
<feFlood flood-opacity="0" result="BackgroundImageFix"/>
<feColorMatrix in="SourceAlpha" type="matrix" values="0 0 0 0 0 0 0 0 0 0 0 0 0 0 0 0 0 0 127 0" result="hardAlpha"/>
<feOffset dx="2" dy="4"/>
<feGaussianBlur stdDeviation="2"/>
<feColorMatrix type="matrix" values="0 0 0 0 0 0 0 0 0 0 0 0 0 0 0 0 0 0 0.25 0"/>
<feBlend mode="normal" in2="BackgroundImageFix" result="effect1_dropShadow_2100_788"/>
<feBlend mode="normal" in="SourceGraphic" in2="effect1_dropShadow_2100_788" result="shape"/>
</filter>
</defs>
</svg>
