<svg width="166" height="150" viewBox="0 0 166 150" fill="none" xmlns="http://www.w3.org/2000/svg">
<path d="M48.1803 48.4505C46.2489 49.2932 43.0333 50.2789 39.29 51.3692C37.9915 51.7213 36.5639 52.2344 35.2397 52.7423C35.1708 52.769 35.1011 52.7961 35.0308 52.8235C34.2921 53.1065 33.534 53.4267 32.5585 53.8119C32.5221 53.8241 32.4743 53.8421 32.415 53.867C31.7284 54.1464 30.9076 54.6963 26.5008 57.5534C27.0221 57.0728 26.4 57.3391 25.5499 58.461C24.752 59.7048 23.899 61.4071 22.4301 63.7243C22.3683 63.8202 22.3069 63.9154 22.2461 64.0098C20.1466 67.2039 18.7062 69.9495 18.5109 71.34C18.0066 74.1171 18.3492 77.356 19.5055 81.0635C21.6627 88.1494 24.3136 94.4034 27.4455 102.128C29.3148 107.502 29.6483 109.951 30.8806 112.019C31.8776 113.741 33.2612 115.444 34.8831 116.973C35.0583 117.119 35.2381 117.266 35.4234 117.413C35.7514 117.673 36.0944 117.932 36.4504 118.189C40.3303 121.066 44.421 123.761 47.6164 125.731C48.0593 126.007 48.4573 126.258 48.8438 126.504C53.4733 129.447 56.0811 130.778 59.0296 131.964C59.7835 132.228 60.6898 132.539 61.6911 132.97C65.318 134.65 70.3919 135.492 75.8117 136.927C81.4714 138.397 88.9206 138.405 96.0551 138.399C100.757 138.393 104.759 137.562 109.636 135.678C110.13 135.502 110.658 135.313 111.316 135.117C114.603 134.149 118.328 132.479 122.249 131.002C122.997 130.721 124.061 130.178 125.113 129.596C128.608 127.645 132.398 125.278 136.413 123.228C137.228 122.808 138.026 122.345 138.807 121.841C140.968 120.28 142.822 118.464 144.479 116.615C146.516 114.354 148.183 112.085 150.188 109.887C150.331 109.72 150.456 109.561 150.572 109.406C151.802 107.977 152.823 104.112 153.728 99.9588C154.02 98.9552 153.933 97.3372 153.563 95.6389C153.407 94.8999 153.213 94.1651 153.01 93.4685C152.545 92.1923 151.999 90.8717 151.416 89.5299C150.485 87.4434 148.968 84.9926 147.388 82.6634C147.288 82.3882 147.188 82.1095 147.084 81.8247C146.402 79.9564 145.319 78.0083 143.784 75.7512C142.443 73.7776 140.702 71.5865 138.435 69.0259C136.715 67.0825 134.687 64.9294 132.294 62.4648C131.774 61.9293 131.248 61.3869 130.705 60.8264C128.708 58.7675 127.899 57.492 127.234 56.4442C127.037 56.1348 126.858 55.8506 126.658 55.5674C125.981 54.6038 124.957 53.9193 123.731 53.0966C122.143 52.0238 120.255 50.802 118.322 48.2899C117.953 47.8068 117.588 47.3298 117.21 46.8201C112.913 41.1976 108.566 39.6352 106.029 38.5186C105.753 38.4036 105.491 38.2964 105.229 38.1856C104.771 38.0149 104.323 37.8494 103.869 37.6546C101.836 36.764 98.5612 34.9938 95.915 33.1734C95.8085 33.0993 95.7039 33.0259 95.6011 32.953C93.5797 31.5001 89.5249 29.7548 86.1902 28.8239C84.9389 28.461 83.3047 27.805 81.341 27.0752C81.0943 26.9834 80.84 26.8896 80.5751 26.7929C78.7226 26.1168 76.5938 25.3961 74.2778 24.7838C67.5969 23.0341 63.9972 22.2338 61.1191 21.5748C60.2976 21.3896 59.5324 21.2191 58.7665 21.0531C56.3484 20.5285 53.3583 19.8505 50.3317 19.2212C49.3102 19.0086 48.2811 18.8003 47.2729 18.6047C44.7062 18.1059 42.2414 17.6849 40.2116 17.4062C33.0383 15.713 25.7618 14.2458 18.4935 13.1154C18.2387 13.0759 17.9791 13.0334 17.7308 12.9898C14.2779 12.3863 11.2296 11.4127 9.03592 10.3114C6.70196 9.11866 5.0354 7.82841 4.77763 6.18918C4.52545 4.58291 5.85027 2.66863 8.93837 1.4031C11.7933 0.229249 15.5324 -0.167852 19.2298 0.0625012C19.4974 0.0787471 19.776 0.0996404 20.0485 0.123196C28.0765 0.828549 36.0349 1.89896 43.9554 3.34803C46.1649 3.75349 48.3683 4.1896 50.5711 4.66061C57.9717 6.24798 65.2419 8.15783 72.4405 10.3863C76.6492 11.6946 80.8369 13.0896 85.0388 14.6643C87.3644 15.5385 89.6861 16.4697 92.0113 17.5009C92.6857 17.8001 93.3579 18.1073 94.0284 18.4227C96.8316 19.4718 99.6619 20.7657 101.907 21.7768C104.075 22.734 106.321 23.6356 108.332 24.6126C109.893 25.3669 111.327 26.2143 112.6 27.1326C113.723 27.957 114.668 28.7309 115.536 29.4553C116.676 30.4066 117.678 31.2668 118.775 32.0662C119.363 32.4956 120.175 33.0804 121.158 33.8332C122.593 34.952 124.376 36.3189 126.455 38.5575C128.677 40.869 132.478 44.4652 135.474 47.8024C137.165 49.6675 139.007 51.8541 140.805 54.0463C141.266 54.6071 141.725 55.1712 142.179 55.7338C145.413 59.719 148.251 63.6834 149.891 65.5195C150.886 66.6208 151.869 67.8403 152.811 69.1297C154.566 71.5322 156.219 74.1378 157.665 76.6392C159.536 79.8646 161.039 82.9142 162.13 85.1925C162.251 85.4351 162.365 85.653 162.479 85.8575C163.682 88.0553 164.374 90.0868 165.029 93.6133C165.342 95.6429 165.82 98.3385 165.047 102.159C164.925 102.7 164.799 103.263 164.664 103.864C163.768 107.879 162.649 111.144 160.889 113.847C159.982 115.247 158.943 116.432 157.865 117.445C156.595 118.6 155.334 120.046 153.784 122.003C151.065 125.489 147.425 128.951 143.957 130.882C143.072 131.386 142.105 131.923 141.068 132.447C140.42 132.774 139.754 133.13 139.075 133.502C137.005 134.635 134.835 135.931 132.677 137.009C130.899 137.895 129.255 138.468 127.67 138.936C127.173 139.083 126.679 139.222 126.177 139.354C125.972 139.442 125.752 139.532 125.533 139.616C124.296 140.092 123.047 140.602 121.777 141.128C121.563 141.27 121.338 141.423 121.102 141.582C119.912 142.38 118.452 143.382 116.337 144.331C115.693 144.618 115.036 144.878 114.361 145.109C112.661 145.778 109.749 146.841 107.054 147.385C104.382 147.957 101.561 148.31 98.3759 148.583C97.7137 148.64 97.0327 148.693 96.321 148.737C94.848 148.834 93.2749 148.961 91.6994 149.072C88.3432 149.313 84.9503 149.456 82.5549 149.208C81.6586 149.117 80.8952 148.865 80.1397 148.604C80.1364 148.602 80.1331 148.601 80.1298 148.599C80.0789 148.581 80.0275 148.564 79.9758 148.546C77.8123 148.417 75.6068 148.208 73.2654 147.722C70.0386 147.058 66.6135 146.616 62.8793 145.809C62.3608 145.733 61.8314 145.646 61.3012 145.549C59.8423 145.284 58.3614 144.932 57.0263 144.557C56.4606 144.456 55.7886 144.379 55.1464 144.332C53.618 144.279 48.8338 142.903 44.6772 140.977C43.1358 140.289 41.6189 139.56 40.1863 138.855C39.0204 138.28 37.9119 137.714 36.9035 137.197C35.5754 136.517 34.5022 135.573 33.4319 134.59C32.433 133.673 31.4342 132.719 30.2164 131.892C29.6064 131.479 28.9212 131.077 28.2072 130.658C27.962 130.515 27.7081 130.365 27.4593 130.218C26.9974 129.932 26.5278 129.624 26.0587 129.284C25.3426 128.764 23.8784 127.416 22.2185 125.45C21.1936 124.235 20.0977 122.783 19.0578 121.15C18.8023 120.803 18.5522 120.449 18.3078 120.089C15.4364 115.893 14.2149 111.052 13.1697 108.524C13.0645 108.389 12.9605 108.276 12.8601 108.192C12.5226 107.778 12.1711 107.421 11.8154 107.144C11.4596 106.868 11.0855 106.66 10.7003 106.442C10.1774 106.149 9.63133 105.837 9.07343 105.314C8.63781 104.906 8.28139 104.333 8.18899 103.887C8.14503 103.677 8.15704 103.495 8.16832 103.331C8.18109 103.143 8.19078 102.972 8.11501 102.806C8.0604 102.686 7.94807 102.585 7.81036 102.459C7.59066 102.257 7.30573 101.994 7.08535 101.5C6.26101 99.6541 5.40208 97.4734 4.61153 95.3177C3.72827 92.9167 2.93174 90.5564 2.24449 88.6944C2.05354 88.1778 1.8647 87.6059 1.67459 86.9772C1.02215 84.8506 0.420292 82.0529 0.159727 79.1019C-0.0929992 76.3677 -0.030399 73.5114 0.238975 71.0452C0.330942 70.1779 0.434794 69.2937 0.563163 68.4022C0.833592 66.5512 1.2709 64.7994 1.78377 63.2422C2.75532 60.3193 3.92306 58.0498 5.11483 56.4595C5.35766 56.1385 5.8286 55.8508 6.41001 55.5148C6.82181 55.2771 7.29159 55.0118 7.77474 54.6932C7.84126 54.5899 7.90779 54.4868 7.97431 54.384C8.77528 53.1574 9.8077 51.1712 11.2541 48.9796C11.28 48.878 11.3079 48.773 11.3364 48.6667C11.3366 48.6649 11.3369 48.663 11.3371 48.6612C11.8784 47.0366 12.228 44.6534 16.0853 41.706C16.4813 41.3583 17.2185 40.8621 18.27 40.3502C19.1313 39.9305 19.8612 39.7911 20.5216 39.6756C21.1767 39.5596 21.7682 39.4563 22.5389 39.051C23.412 38.5977 24.3965 37.853 25.7922 37.0916C25.7986 37.087 25.805 37.0825 25.8114 37.0779C26.6949 36.4493 27.9486 35.5669 29.6154 35.1628C29.7285 35.1355 29.8521 35.1062 29.9804 35.0754C30.9661 34.8387 32.4155 34.5021 34.059 34.3851C34.3669 34.3809 34.6787 34.3843 34.9963 34.3964C38.3012 33.4861 42.1729 32.4192 46.1331 31.9021C48.0235 31.6596 49.1103 31.6499 50.4827 31.5906C57.1648 31.387 63.6158 31.6829 70.1029 32.2599C71.7312 32.407 73.3459 32.5772 74.9535 32.7637C78.8564 33.2185 82.5052 34.341 85.0959 35.8483C87.6831 37.3572 89.0098 39.1146 88.7905 40.7143C88.5818 42.3174 86.8954 43.6634 84.132 44.5809C81.3626 45.4961 77.7285 45.8999 74.0273 45.8158C72.5027 45.7802 70.9848 45.7611 69.4807 45.7638C64.9998 45.7716 60.5181 45.9385 56.1096 46.2807C55.8095 46.3243 55.487 46.3685 55.1882 46.4109C52.939 46.7279 50.6989 47.3259 49.1033 47.9775C48.9891 48.0336 48.8619 48.0952 48.9055 48.1304C48.6602 48.236 48.4208 48.3425 48.1803 48.4505Z" fill="#2977BD"/>
</svg>
