<svg width="545" height="491" viewBox="0 0 545 491" fill="none" xmlns="http://www.w3.org/2000/svg">
<g filter="url(#filter0_d_2100_804)">
<path fill-rule="evenodd" clip-rule="evenodd" d="M270.406 4.03879C303.295 -3.31729 327.475 -0.186125 344.894 9.87669C362.315 19.9408 372.888 36.8881 378.667 56.9812C390.126 96.8326 382.781 149.24 372.417 185.664C403.586 177.753 448.702 173.209 483.775 185.123C501.484 191.138 516.665 201.36 526.171 217.492C535.678 233.623 539.472 255.595 534.543 285.032C529.617 314.446 520.523 335.261 508.983 349.531C497.438 363.808 483.462 371.51 468.83 374.726C440.517 380.948 409.791 370.368 389.399 358.304C396.376 368.718 403.311 381.379 408.3 394.588C413.594 408.601 416.712 423.268 415.341 436.536C413.968 449.824 408.088 461.707 395.414 470.084C382.761 478.446 363.391 483.279 335.1 482.621C306.804 481.962 286.172 476.327 271.454 467.569C256.727 458.806 247.946 446.932 243.333 433.857C235.014 410.28 240.262 382.849 248.46 362.72C236.414 381.196 216.635 404.969 192.348 420.217C178.893 428.664 164.034 434.509 148.328 435.368C132.613 436.228 116.084 432.095 99.3062 420.644C65.796 397.774 55.9059 371.781 57.3121 348.457C58.6975 325.479 71.0415 305.186 82.315 293.111C71.4056 287.089 58.7656 280.523 46.7369 272.924C34.4991 265.192 22.8524 256.365 14.2476 245.894C5.6367 235.416 0.0631572 223.278 0.000531329 208.946C-0.0619531 194.621 5.38227 178.168 18.6831 159.052C31.9973 139.918 47.3513 128.556 63.4859 123.17C79.6177 117.784 96.4885 118.385 112.816 123.104C142.373 131.648 170.203 153.7 188.817 178.317C176.151 154.161 165.843 120.262 171.569 88.2234C174.78 70.256 183.034 52.8786 198.731 38.155C214.424 23.4354 237.53 11.3921 270.406 4.03879ZM267.463 222.865C246.31 222.865 229.163 240.275 229.163 261.752C229.163 283.228 246.31 300.638 267.463 300.638C288.616 300.638 305.764 283.228 305.764 261.752C305.764 240.275 288.616 222.865 267.463 222.865Z" fill="#2977BD"/>
</g>
<defs>
<filter id="filter0_d_2100_804" x="0" y="0" width="544.705" height="490.68" filterUnits="userSpaceOnUse" color-interpolation-filters="sRGB">
<feFlood flood-opacity="0" result="BackgroundImageFix"/>
<feColorMatrix in="SourceAlpha" type="matrix" values="0 0 0 0 0 0 0 0 0 0 0 0 0 0 0 0 0 0 127 0" result="hardAlpha"/>
<feOffset dx="8" dy="8"/>
<feComposite in2="hardAlpha" operator="out"/>
<feColorMatrix type="matrix" values="0 0 0 0 0 0 0 0 0 0 0 0 0 0 0 0 0 0 1 0"/>
<feBlend mode="normal" in2="BackgroundImageFix" result="effect1_dropShadow_2100_804"/>
<feBlend mode="normal" in="SourceGraphic" in2="effect1_dropShadow_2100_804" result="shape"/>
</filter>
</defs>
</svg>
